<?xml version="1.0" encoding="utf-8"?>
<!-- Generator: Adobe Illustrator 25.1.0, SVG Export Plug-In . SVG Version: 6.00 Build 0)  -->
<svg version="1.1" id="圖層_1" xmlns="http://www.w3.org/2000/svg" xmlns:xlink="http://www.w3.org/1999/xlink" x="0px" y="0px"
	 viewBox="0 0 150 110" style="enable-background:new 0 0 150 110;" xml:space="preserve">
<style type="text/css">
	.st0{fill:#F7F7F9;}
</style>
<g>
	<g>
		<g>
			<path class="st0" d="M65.34,0.01h7.83V39.5h-7.83c-2.07-7.09-4.13-14.17-6.14-21.07c0.15,1.86,0.4,3.92,0.45,5.98
				c0.12,4.95,0.14,9.89,0.2,14.84c0,0.08-0.04,0.17-0.07,0.25h-7.65c-0.03-0.31-0.08-0.63-0.08-0.94
				c-0.01-12.53-0.01-25.07,0-37.61c0-0.31,0.05-0.63,0.08-0.94h7.65c2.14,7.49,4.29,14.98,6.4,22.37
				C65.34,15.02,65.27,7.52,65.34,0.01"/>
			<path class="st0" d="M86.58,30.07c1.15-0.11,2-0.6,2.53-1.48c0.46-0.76,0.88-1.58,1.09-2.43c0.88-3.5,0.86-7.07,0.25-10.6
				c-0.24-1.37-0.81-2.7-1.4-3.97c-0.44-0.94-1.28-1.53-2.47-1.45V30.07z M78.39,0.01h8.7c0.25,0.06,0.5,0.13,0.76,0.17
				c2.26,0.36,4.25,1.28,5.89,2.9c2.16,2.13,3.45,4.76,4.29,7.62c1.23,4.23,1.33,8.56,1,12.9c-0.22,2.95-0.8,5.83-2.01,8.56
				c-1.47,3.33-3.65,5.89-7.31,6.87c-0.64,0.17-1.29,0.3-1.93,0.45h-9.4V0.01z"/>
			<path class="st0" d="M38.73,0.01h8c0.01,1.25,0.02,2.49,0.02,3.74c-0.01,8.43,0.03,16.87-0.05,25.31
				c-0.03,3.4-1.34,6.3-4.02,8.52c-1.26,1.05-2.76,1.54-4.31,1.93h-2.96c-0.11-0.04-0.21-0.11-0.32-0.13
				c-3.76-0.64-6.25-2.82-7.62-6.32c-0.86-2.21-1.11-4.53-1.11-6.89c0.01-8.72,0-17.43,0-26.15h8.18c0,8.66-0.01,17.33,0,25.99
				c0,0.83,0.1,1.68,0.29,2.49c0.27,1.17,0.88,1.64,1.84,1.59c0.92-0.04,1.53-0.6,1.69-1.77c0.16-1.17,0.25-2.36,0.25-3.54
				c0.02-7.88,0.01-15.76,0.02-23.64C38.65,0.76,38.7,0.39,38.73,0.01"/>
			<path class="st0" d="M115.22,26.08c-0.49-5.19-0.97-10.29-1.44-15.28c-0.59,5.01-1.2,10.13-1.81,15.28H115.22z M125.19,39.5
				h-8.35c-0.19-1.71-0.39-3.42-0.58-5.19c-1.73,0-3.37-0.01-5.01,0.02c-0.17,0-0.44,0.28-0.46,0.45c-0.21,1.57-0.38,3.15-0.55,4.72
				h-8.52c0.06-0.25,0.12-0.5,0.17-0.76c0.67-3.66,1.34-7.32,2.01-10.99c1.18-6.47,2.37-12.94,3.56-19.41
				c0.51-2.78,1.05-5.55,1.57-8.33h9.92c0.93,5.82,1.86,11.65,2.81,17.47c0.9,5.57,1.82,11.13,2.71,16.7
				C124.72,35.95,124.94,37.73,125.19,39.5"/>
			<polygon class="st0" points="21.16,0.01 21.16,9.05 9.02,9.05 9.02,14.42 16.93,14.42 16.93,23.1 8.98,23.1 8.98,39.5 0.81,39.5 
				0.81,0.01 			"/>
			<path class="st0" d="M140.67,0.01c2.67,0,5.33,0,8,0.01c0.17,0,0.35,0.11,0.52,0.17c-0.1,0.23-0.24,0.45-0.31,0.69
				c-2.16,7.04-4.32,14.08-6.46,21.12c-0.17,0.57-0.26,1.19-0.26,1.79c-0.02,4.89-0.01,9.79-0.02,14.69c0,0.35-0.05,0.69-0.08,1.03
				h-8c-0.01-5.3-0.01-10.6-0.03-15.9c0-0.43-0.05-0.87-0.18-1.28c-0.94-2.91-1.9-5.82-2.85-8.72c-1.48-4.53-2.94-9.06-4.41-13.59
				h8.52c0.92,3.83,1.83,7.66,2.78,11.61C138.83,7.67,139.75,3.84,140.67,0.01"/>
		</g>
		<g>
			<path class="st0" d="M65.34,0.24h7.83v38.94h-7.83c-2.06-6.99-4.13-13.97-6.14-20.77c0.15,1.84,0.4,3.86,0.45,5.9
				c0.12,4.88,0.14,9.76,0.2,14.63c0,0.08-0.04,0.16-0.07,0.24h-7.65c-0.03-0.31-0.08-0.62-0.08-0.93
				c-0.01-12.36-0.01-24.72,0-37.08c0-0.31,0.05-0.62,0.08-0.93h7.65c2.14,7.38,4.28,14.77,6.4,22.05
				C65.33,15.04,65.27,7.64,65.34,0.24"/>
			<path class="st0" d="M86.57,29.87c1.15-0.11,2-0.6,2.53-1.46c0.46-0.75,0.88-1.56,1.09-2.4c0.88-3.45,0.86-6.97,0.25-10.45
				c-0.24-1.35-0.81-2.67-1.4-3.91c-0.44-0.92-1.28-1.51-2.47-1.43V29.87z M78.38,0.24h8.7c0.25,0.06,0.5,0.13,0.76,0.17
				c2.26,0.36,4.25,1.26,5.89,2.86c2.16,2.1,3.45,4.69,4.29,7.52c1.23,4.17,1.33,8.44,1,12.72c-0.22,2.91-0.8,5.75-2.01,8.45
				c-1.47,3.28-3.65,5.81-7.3,6.78c-0.64,0.17-1.29,0.3-1.93,0.45h-9.4V0.24z"/>
			<path class="st0" d="M38.72,0.24h8c0.01,1.23,0.02,2.46,0.02,3.69c-0.01,8.32,0.03,16.64-0.05,24.95
				c-0.03,3.35-1.34,6.21-4.02,8.4c-1.26,1.03-2.76,1.52-4.31,1.9h-2.96c-0.11-0.04-0.21-0.11-0.32-0.12
				c-3.76-0.63-6.25-2.78-7.62-6.23c-0.86-2.18-1.11-4.47-1.11-6.8c0.01-8.6,0-17.19,0-25.78h8.17c0,8.54-0.01,17.08,0,25.62
				c0,0.82,0.1,1.66,0.29,2.45c0.27,1.16,0.88,1.62,1.84,1.57c0.92-0.04,1.53-0.59,1.69-1.74c0.16-1.15,0.25-2.33,0.25-3.49
				c0.02-7.77,0.01-15.54,0.02-23.31C38.64,0.98,38.7,0.61,38.72,0.24"/>
			<path class="st0" d="M115.21,25.94c-0.49-5.11-0.97-10.14-1.44-15.07c-0.59,4.94-1.2,9.99-1.81,15.07H115.21z M125.17,39.18
				h-8.35c-0.19-1.69-0.39-3.37-0.58-5.12c-1.73,0-3.37-0.01-5.01,0.02c-0.17,0-0.44,0.27-0.46,0.44c-0.21,1.55-0.38,3.1-0.55,4.66
				h-8.52c0.06-0.25,0.12-0.5,0.17-0.75c0.67-3.61,1.34-7.22,2.01-10.83c1.18-6.38,2.37-12.76,3.56-19.14
				c0.51-2.74,1.05-5.48,1.57-8.21h9.92c0.93,5.74,1.86,11.49,2.81,17.23c0.9,5.49,1.82,10.98,2.71,16.47
				C124.71,35.68,124.93,37.43,125.17,39.18"/>
			<polygon class="st0" points="21.15,0.24 21.15,9.15 9.02,9.15 9.02,14.45 16.93,14.45 16.93,23 8.98,23 8.98,39.18 0.81,39.18 
				0.81,0.24 			"/>
			<path class="st0" d="M140.65,0.24c2.67,0,5.33,0,8,0.01c0.17,0,0.35,0.11,0.52,0.16c-0.1,0.23-0.24,0.44-0.31,0.68
				c-2.16,6.94-4.32,13.88-6.46,20.82c-0.17,0.56-0.26,1.17-0.26,1.76c-0.02,4.83-0.01,9.65-0.02,14.48c0,0.34-0.05,0.68-0.08,1.02
				h-8c-0.01-5.23-0.01-10.45-0.03-15.68c0-0.42-0.05-0.86-0.18-1.26c-0.94-2.87-1.9-5.73-2.85-8.6c-1.48-4.47-2.94-8.93-4.41-13.4
				h8.52c0.92,3.78,1.83,7.55,2.78,11.44C138.82,7.79,139.74,4.02,140.65,0.24"/>
		</g>
		<path class="st0" d="M31.45,108.28v-8.85c2.37,1.59,4.36,2.39,5.97,2.39c0.94,0,1.68-0.3,2.22-0.9s0.81-1.39,0.81-2.38
			c0-0.76-0.22-1.47-0.65-2.14c-0.44-0.66-1.19-1.47-2.26-2.42c-2.58-2.28-4.45-4.4-5.61-6.36c-1.16-1.96-1.74-4.15-1.74-6.56
			c0-3.28,0.9-5.96,2.69-8.03c1.79-2.07,4.11-3.1,6.95-3.1c2.1,0,4.19,0.52,6.26,1.57v8.51c-2.22-1.4-4.02-2.11-5.4-2.11
			c-0.92,0-1.65,0.26-2.18,0.78c-0.53,0.52-0.8,1.24-0.8,2.15c0,1.59,1.24,3.39,3.72,5.38c1.48,1.18,2.98,2.83,4.5,4.97
			c1.52,2.14,2.28,4.61,2.28,7.42c0,3.28-0.99,6-2.98,8.16c-1.99,2.15-4.51,3.23-7.57,3.23C35.58,109.99,33.51,109.42,31.45,108.28z
			"/>
		<path class="st0" d="M51.85,70.98h7.47v14.09h6.63V70.98h7.47v38.01h-7.47v-15.8h-6.63v15.8h-7.47V70.98z"/>
		<path class="st0" d="M90.69,109.93c-3.98,0-7.01-1.76-9.1-5.28c-2.09-3.52-3.13-8.6-3.13-15.25c0-6.13,1.05-10.91,3.14-14.33
			c2.1-3.43,5.02-5.14,8.77-5.14c3.99,0,7.05,1.72,9.16,5.15c2.11,3.44,3.17,8.34,3.17,14.72c0,6.38-1.04,11.33-3.12,14.85
			C97.5,108.17,94.54,109.93,90.69,109.93z M90.42,78.56c-2.7,0-4.04,3.65-4.04,10.96c0,4.71,0.34,7.85,1.02,9.42
			c0.68,1.58,1.67,2.36,2.97,2.36c1.4,0,2.47-0.79,3.22-2.36c0.75-1.57,1.12-4.66,1.12-9.25C94.71,82.27,93.28,78.56,90.42,78.56z"
			/>
		<path class="st0" d="M106.52,70.98h9.25c3.25,0,5.87,1.07,7.84,3.22c1.97,2.15,2.96,4.97,2.96,8.48c0,3.7-1,6.6-3,8.7
			c-2,2.1-4.76,3.15-8.3,3.15h-1.28v14.46h-7.47V70.98z M113.99,78.27v8.97c1.68-0.04,2.91-0.41,3.71-1.11
			c0.8-0.7,1.2-1.81,1.2-3.33c0-1.63-0.39-2.78-1.16-3.46C116.97,78.67,115.72,78.31,113.99,78.27z"/>
	</g>
</g>
</svg>
